<?xml version="1.0" standalone="no"?><!DOCTYPE svg PUBLIC "-//W3C//DTD SVG 1.1//EN" "http://www.w3.org/Graphics/SVG/1.1/DTD/svg11.dtd"><svg t="1525176537578" class="icon" style="" viewBox="0 0 1024 1024" version="1.1" xmlns="http://www.w3.org/2000/svg" p-id="808" xmlns:xlink="http://www.w3.org/1999/xlink" width="200" height="200"><defs><style type="text/css"></style></defs><path d="M609 475.8l350.2-0.3c-10.4-131.8-78.8-256.9-194.4-335.8L590 443.1c8.4 9.8 14.8 20.8 19 32.7z" fill="#CCCCCC" p-id="809"></path><path d="M601.2 562.2c-3.2 5.6-7 10.7-11 15.5l175.4 303.2c53.7-36.8 100.3-86 135-146.2s53.9-125.1 58.8-190.1l-350.4 0.3c-2.1 5.9-4.6 11.7-7.8 17.3zM530.1 408.6l174.8-303.4c-126.2-60.4-268.7-56.8-388 0.3l175.4 303.1c12.4-2.3 25.2-2.3 37.8 0zM413.7 545.1l-350.2 0.3c10.4 131.8 78.8 256.9 194.4 335.8l174.8-303.4c-8.4-9.8-14.8-20.8-19-32.7z" fill="#3366CC" p-id="810"></path><path d="M492.5 612.3L317.7 915.7c126.2 60.4 268.7 56.8 388-0.3L530.3 612.3c-12.3 2.3-25.1 2.3-37.8 0zM421.5 458.7c3.2-5.6 7-10.7 11-15.5L257.1 140c-53.7 36.8-100.3 86-135 146.2S68.2 411.3 63.3 476.3l350.3-0.3c2.1-5.9 4.7-11.7 7.9-17.3z" fill="#CCCCCC" p-id="811"></path><path d="M511.3 510.4m-69.1 0a69.1 69.1 0 1 0 138.2 0 69.1 69.1 0 1 0-138.2 0Z" fill="#3366CC" p-id="812"></path></svg>