<?xml version="1.0" standalone="no"?><!DOCTYPE svg PUBLIC "-//W3C//DTD SVG 1.1//EN" "http://www.w3.org/Graphics/SVG/1.1/DTD/svg11.dtd"><svg t="1525177318502" class="icon" style="" viewBox="0 0 1035 1024" version="1.1" xmlns="http://www.w3.org/2000/svg" p-id="1306" xmlns:xlink="http://www.w3.org/1999/xlink" width="202.1484375" height="200"><defs><style type="text/css"></style></defs><path d="M517.617345 192.013069c-105.289851 0-195.851649-63.850608-224.158745-126.467131l-0.244972-0.307496-7.140067-17.762019 53.76165-30.435996 8.854872 16.282961c28.189222 51.686049 96.073159 86.400346 168.927262 86.400346 72.853078 0 140.726765-34.714297 168.928287-86.400346l8.852822-16.282961 54.337693 30.766042-7.876008 17.633896c-28.094924 62.520173-118.847369 126.572704-224.242794 126.572704z" fill="#C9C4BD" p-id="1307"></path><path d="M238.216867 1007.65144V363.792872l-105.225278 27.168335L16.34692 200.143274l269.151622-152.336805 8.268579 18.09104c27.881726 61.137465 115.803154 126.115559 223.850224 126.11556 107.992745 0 195.935698-64.97912 223.860473-126.11556l8.278829-18.08079 269.131122 152.326555L902.2513 390.961207l-105.225277-27.168335v643.858568H238.216867z" fill="#E3DDD5" p-id="1308"></path><path d="M411.879574 563.038257c-21.134229-18.771632-35.490213-41.854364-41.608367-67.021921-1.872653-7.885233-2.649594-14.398008-2.894566-19.228777l-1.404234-1.533382 1.74453-8.970696c3.638708-39.140195 31.818705-78.73856 78.673985-78.73856 31.223187 0 59.562058 18.548184 72.205286 47.270401 12.832851-29.604731 39.076646-47.270401 70.19221-47.270401 46.803006 0 75.088577 40.140584 78.919983 79.877322 0.595518 5.065491 0.553494 15.057075-2.744919 28.541818-6.150954 25.326431-20.517187 48.430687-41.481268 66.860998l-104.887031 91.945532-106.715609-91.732334z" fill="#E5BE7B" p-id="1309"></path><path d="M797.027048 1023.996925H238.216867c-9.023995 0-16.345485-7.32149-16.345485-16.345485V384.895327l-84.79419 21.890671c-7.001694 1.787579-14.291409-1.170536-18.036715-7.30099L2.395807 208.6681a16.359835 16.359835 0 0 1-1.873678-12.621703 16.38546 16.38546 0 0 1 7.76941-10.130983L333.00264 2.121725c4.203476-2.362598 9.268967-2.767468 13.76969-1.086487a16.331135 16.331135 0 0 1 9.685113 9.833736c19.378425 54.464792 85.65518 92.50825 161.158877 92.50825 75.470898 0 141.727153-38.043458 161.115827-92.50825a16.363935 16.363935 0 0 1 9.705613-9.832711 16.275786 16.275786 0 0 1 13.74919 1.085462l324.743901 183.793689c3.874455 2.181175 6.662423 5.842432 7.789909 10.130983a16.410059 16.410059 0 0 1-1.872653 12.621703l-116.633394 190.816908c-3.789381 6.129429-11.025797 9.067045-18.049016 7.30099l-84.793164-21.890671v622.756113c0 9.02502-7.32149 16.345485-16.34651 16.345485z m-542.464696-32.69097h526.119211V363.792872c0-5.055241 2.341073-9.822461 6.342626-12.91895a16.208137 16.208137 0 0 1 14.089486-2.905841l93.519913 24.135395 101.479971-166.06447L701.78413 39.452817c-30.457521 57.709904-103.119952 96.616402-184.166785 96.616402-81.079633 0-153.752313-38.906498-184.19856-96.605128L39.109856 206.039006l101.511745 166.06447 93.509663-24.135395a16.252211 16.252211 0 0 1 14.099736 2.905841 16.355735 16.355735 0 0 1 6.332377 12.91895v627.513083z" fill="#826A5D" p-id="1310"></path><path d="M517.617345 208.359579c-117.773181 0-211.750239-71.672292-240.387382-139.120609-3.522884-8.311628 0.351571-17.899367 8.662175-21.432501 8.311628-3.533134 17.899367 0.361821 21.432501 8.662175 24.880561 58.593444 110.333818 119.19894 210.292706 119.19894 99.946589 0 185.42137-60.605496 210.301931-119.20919 3.554659-8.290104 13.174172-12.163534 21.432501-8.6509 8.302404 3.532109 12.175834 13.130097 8.663199 21.442751-28.668917 67.437041-122.65725 139.108308-240.397631 139.108309z" fill="#826A5D" p-id="1311"></path><path d="M411.879574 563.038257c-21.134229-18.771632-35.490213-41.854364-41.608367-67.021921-1.872653-7.885233-2.649594-14.398008-2.894566-19.228777l-1.404234-1.533382 1.74453-8.970696c3.638708-39.140195 31.818705-78.73856 78.673985-78.73856 31.223187 0 59.562058 18.548184 72.205286 47.270401 12.832851-29.604731 39.076646-47.270401 70.19221-47.270401 46.803006 0 75.088577 40.140584 78.919983 79.877322 0.595518 5.065491 0.553494 15.057075-2.744919 28.541818-6.150954 25.326431-20.517187 48.430687-41.481268 66.860998l-104.887031 91.945532-106.715609-91.732334z" fill="#C1A290" p-id="1312"></path><path d="M518.596208 671.117101a16.37111 16.37111 0 0 1-10.652701-3.938004l-106.71561-91.753859c-23.815598-21.112705-39.948911-47.195577-46.84503-75.545722-1.532357-6.459475-2.55427-12.631953-3.064715-18.474385-1.287385-3.074964-1.947477-6.436925-1.393983-9.268968l1.744529-8.970695c4.097902-44.897553 38.098807-91.966031 94.722224-91.966032 28.009849 0 54.082472 12.355206 71.89574 32.904168 17.273099-20.974331 42.19466-32.904168 70.501756-32.904168 56.487094 0 90.668396 47.620947 95.180394 94.658675 0.489944 4.053828 1.235111 16.196862-3.128264 33.98963-6.91867 28.519269-23.029432 54.549866-46.568284 75.236176L529.377033 667.072498a16.305511 16.305511 0 0 1-10.7798 4.044603zM383.062033 472.806505c0.361821 1.096737 0.586293 2.170925 0.638568 3.150814 0.170148 3.40501 0.745166 8.992221 2.469196 16.281936 5.299188 21.762547 17.941392 42.045011 36.555175 58.561669l95.764638 82.345493 94.22203-82.623265c18.431336-16.218387 31.031514-36.426027 36.353252-58.412021 3.276887-13.33407 2.596295-21.315652 2.426147-22.773185-3.172338-32.702245-25.689276-65.447539-62.702621-65.44754-24.773962 0-44.886278 13.642591-55.197659 37.42744a16.34856 16.34856 0 0 1-14.952526 9.843986h-0.042025a16.36086 16.36086 0 0 1-14.962776-9.757887c-10.024384-22.785485-32.499297-37.513539-57.24251-37.513539-37.064594 0-59.444184 32.149776-62.402299 63.903908l-0.92659 5.012191z" fill="#826A5D" p-id="1313"></path></svg>